<svg xmlns="http://www.w3.org/2000/svg" xmlns:xlink="http://www.w3.org/1999/xlink" contentStyleType="text/css" data-diagram-type="CLASS" height="1284px" preserveAspectRatio="none" style="width:1175px;height:1284px;background:#FFFFFF;" version="1.1" viewBox="0 0 1175 1284" width="1175px" zoomAndPan="magnify"><defs/><g><!--class UI--><g id="elem_UI"><rect codeLine="4" fill="#F1F1F1" height="308.75" id="UI" rx="2.5" ry="2.5" style="stroke:#181818;stroke-width:0.5;" width="478.7783" x="520.5" y="7"/><ellipse cx="748.4512" cy="23" fill="#ADD1B2" rx="11" ry="11" style="stroke:#181818;stroke-width:1;"/><path d="M751.4199,28.6406 Q750.8418,28.9375 750.2012,29.0781 Q749.5605,29.2344 748.8574,29.2344 Q746.3574,29.2344 745.0293,27.5938 Q743.7168,25.9375 743.7168,22.8125 Q743.7168,19.6875 745.0293,18.0313 Q746.3574,16.375 748.8574,16.375 Q749.5605,16.375 750.2012,16.5313 Q750.8574,16.6875 751.4199,16.9844 L751.4199,19.7031 Q750.7949,19.125 750.2012,18.8594 Q749.6074,18.5781 748.9824,18.5781 Q747.6387,18.5781 746.9512,19.6563 Q746.2637,20.7188 746.2637,22.8125 Q746.2637,24.9063 746.9512,25.9844 Q747.6387,27.0469 748.9824,27.0469 Q749.6074,27.0469 750.2012,26.7813 Q750.7949,26.5 751.4199,25.9219 L751.4199,28.6406 Z " fill="#000000"/><text fill="#000000" font-family="sans-serif" font-size="14" lengthAdjust="spacing" textLength="14.376" x="768.9512" y="27.8467">UI</text><line style="stroke:#181818;stroke-width:0.5;" x1="521.5" x2="998.2783" y1="39" y2="39"/><text fill="#000000" font-family="sans-serif" font-size="14" lengthAdjust="spacing" textLength="150.4863" x="526.5" y="55.9951">-controller: Controller</text><text fill="#000000" font-family="sans-serif" font-size="14" lengthAdjust="spacing" textLength="204.4561" x="526.5" y="72.292">-basket_controller: Controller</text><line style="stroke:#181818;stroke-width:0.5;" x1="521.5" x2="998.2783" y1="79.5938" y2="79.5938"/><text fill="#000000" font-family="sans-serif" font-size="14" lengthAdjust="spacing" textLength="163.1738" x="526.5" y="96.5889">+runApplication(): void</text><text fill="#000000" font-family="sans-serif" font-size="14" lengthAdjust="spacing" textLength="194.2773" x="526.5" y="112.8857">+administratorMode(): void</text><text fill="#000000" font-family="sans-serif" font-size="14" lengthAdjust="spacing" textLength="130.1289" x="526.5" y="129.1826">+userMode(): void</text><text fill="#000000" font-family="sans-serif" font-size="14" lengthAdjust="spacing" textLength="346.0693" x="526.5" y="145.4795">+printAllTrenchCoats(codeOfController: int): void</text><text fill="#000000" font-family="sans-serif" font-size="14" lengthAdjust="spacing" textLength="168.5742" x="526.5" y="161.7764">+addTrenchCoat(): void</text><text fill="#000000" font-family="sans-serif" font-size="14" lengthAdjust="spacing" textLength="195.6924" x="526.5" y="178.0732">+removeTrenchCoat(): void</text><text fill="#000000" font-family="sans-serif" font-size="14" lengthAdjust="spacing" textLength="191.5498" x="526.5" y="194.3701">+updateTrenchCoat(): void</text><text fill="#000000" font-family="sans-serif" font-size="14" lengthAdjust="spacing" textLength="165.2109" x="526.5" y="210.667">+getTrenchCoat(): void</text><text fill="#000000" font-family="sans-serif" font-size="14" lengthAdjust="spacing" textLength="180.5645" x="526.5" y="226.9639">+writeToDatabase(): void</text><text fill="#000000" font-family="sans-serif" font-size="14" lengthAdjust="spacing" textLength="196.0957" x="526.5" y="243.2607">+readFromDatabase(): void</text><text fill="#000000" font-family="sans-serif" font-size="14" lengthAdjust="spacing" textLength="244.0771" x="526.5" y="259.5576">+cycleThroughTrenchCoats(): void</text><text fill="#000000" font-family="sans-serif" font-size="14" lengthAdjust="spacing" textLength="466.7783" x="526.5" y="275.8545">+addTrenchCoatToShoppingBasket(trenchCoat: TrenchCoat): void</text><text fill="#000000" font-family="sans-serif" font-size="14" lengthAdjust="spacing" textLength="207.7783" x="526.5" y="292.1514">+printShoppingBasket(): void</text><text fill="#000000" font-family="sans-serif" font-size="14" lengthAdjust="spacing" textLength="258.0635" x="526.5" y="308.4482">+emptyBasketOfTrenchCoats(): void</text></g><!--class Controller--><g id="elem_Controller"><rect codeLine="23" fill="#F1F1F1" height="210.9688" id="Controller" rx="2.5" ry="2.5" style="stroke:#181818;stroke-width:0.5;" width="758.0674" x="381" y="393"/><ellipse cx="721.1973" cy="409" fill="#ADD1B2" rx="11" ry="11" style="stroke:#181818;stroke-width:1;"/><path d="M724.166,414.6406 Q723.5879,414.9375 722.9473,415.0781 Q722.3066,415.2344 721.6035,415.2344 Q719.1035,415.2344 717.7754,413.5938 Q716.4629,411.9375 716.4629,408.8125 Q716.4629,405.6875 717.7754,404.0313 Q719.1035,402.375 721.6035,402.375 Q722.3066,402.375 722.9473,402.5313 Q723.6035,402.6875 724.166,402.9844 L724.166,405.7031 Q723.541,405.125 722.9473,404.8594 Q722.3535,404.5781 721.7285,404.5781 Q720.3848,404.5781 719.6973,405.6563 Q719.0098,406.7188 719.0098,408.8125 Q719.0098,410.9063 719.6973,411.9844 Q720.3848,413.0469 721.7285,413.0469 Q722.3535,413.0469 722.9473,412.7813 Q723.541,412.5 724.166,411.9219 L724.166,414.6406 Z " fill="#000000"/><text fill="#000000" font-family="sans-serif" font-size="14" lengthAdjust="spacing" textLength="69.1729" x="741.6973" y="413.8467">Controller</text><line style="stroke:#181818;stroke-width:0.5;" x1="382" x2="1138.0674" y1="425" y2="425"/><text fill="#000000" font-family="sans-serif" font-size="14" lengthAdjust="spacing" textLength="160.3916" x="387" y="441.9951">-repository: Repository</text><line style="stroke:#181818;stroke-width:0.5;" x1="382" x2="1138.0674" y1="449.2969" y2="449.2969"/><text fill="#000000" font-family="sans-serif" font-size="14" lengthAdjust="spacing" textLength="642.9268" x="387" y="466.292">+addTrenchCoat(id: int, size: int, color: string, price: float, quantity: int, photo: string): bool</text><text fill="#000000" font-family="sans-serif" font-size="14" lengthAdjust="spacing" textLength="235.8877" x="387" y="482.5889">+removeTrenchCoat(id: int): void</text><text fill="#000000" font-family="sans-serif" font-size="14" lengthAdjust="spacing" textLength="746.0674" x="387" y="498.8857">+updateTrenchCoat(id: int, newID: int, size: int, color: string, price: float, quantity: int, photo: string): bool</text><text fill="#000000" font-family="sans-serif" font-size="14" lengthAdjust="spacing" textLength="220.7324" x="387" y="515.1826">+trenchCoatExists(id: int): bool</text><text fill="#000000" font-family="sans-serif" font-size="14" lengthAdjust="spacing" textLength="256.5527" x="387" y="531.4795">+getTrenchCoat(id: int): TrenchCoat</text><text fill="#000000" font-family="sans-serif" font-size="14" lengthAdjust="spacing" textLength="308.875" x="387" y="547.7764">+getAllTrenchCoats(): vector&lt;TrenchCoat&gt;</text><text fill="#000000" font-family="sans-serif" font-size="14" lengthAdjust="spacing" textLength="314.2207" x="387" y="564.0732">+filterBySize(size: int): vector&lt;TrenchCoat&gt;</text><text fill="#000000" font-family="sans-serif" font-size="14" lengthAdjust="spacing" textLength="154.8271" x="387" y="580.3701">+saveProgress(): void</text><text fill="#000000" font-family="sans-serif" font-size="14" lengthAdjust="spacing" textLength="151.8262" x="387" y="596.667">+loadFromFile(): void</text></g><!--class Repository--><g id="elem_Repository"><rect codeLine="36" fill="#F1F1F1" height="178.375" id="Repository" rx="2.5" ry="2.5" style="stroke:#181818;stroke-width:0.5;" width="757.7871" x="156" y="681"/><ellipse cx="493.1074" cy="697" fill="#ADD1B2" rx="11" ry="11" style="stroke:#181818;stroke-width:1;"/><path d="M496.0762,702.6406 Q495.498,702.9375 494.8574,703.0781 Q494.2168,703.2344 493.5137,703.2344 Q491.0137,703.2344 489.6855,701.5938 Q488.373,699.9375 488.373,696.8125 Q488.373,693.6875 489.6855,692.0313 Q491.0137,690.375 493.5137,690.375 Q494.2168,690.375 494.8574,690.5313 Q495.5137,690.6875 496.0762,690.9844 L496.0762,693.7031 Q495.4512,693.125 494.8574,692.8594 Q494.2637,692.5781 493.6387,692.5781 Q492.2949,692.5781 491.6074,693.6563 Q490.9199,694.7188 490.9199,696.8125 Q490.9199,698.9063 491.6074,699.9844 Q492.2949,701.0469 493.6387,701.0469 Q494.2637,701.0469 494.8574,700.7813 Q495.4512,700.5 496.0762,699.9219 L496.0762,702.6406 Z " fill="#000000"/><text fill="#000000" font-family="sans-serif" font-size="14" lengthAdjust="spacing" textLength="75.0723" x="513.6074" y="701.8467">Repository</text><line style="stroke:#181818;stroke-width:0.5;" x1="157" x2="912.7871" y1="713" y2="713"/><text fill="#000000" font-family="sans-serif" font-size="14" lengthAdjust="spacing" textLength="247.8643" x="162" y="729.9951">-trenchCoats: vector&lt;TrenchCoat&gt;</text><text fill="#000000" font-family="sans-serif" font-size="14" lengthAdjust="spacing" textLength="117.0313" x="162" y="746.292">-fileName: string</text><line style="stroke:#181818;stroke-width:0.5;" x1="157" x2="912.7871" y1="753.5938" y2="753.5938"/><text fill="#000000" font-family="sans-serif" font-size="14" lengthAdjust="spacing" textLength="642.6465" x="162" y="770.5889">+addTrenchCoat(id: int, size: int, color: string, price: float, quantity: int, photo: string): void</text><text fill="#000000" font-family="sans-serif" font-size="14" lengthAdjust="spacing" textLength="235.8877" x="162" y="786.8857">+removeTrenchCoat(id: int): void</text><text fill="#000000" font-family="sans-serif" font-size="14" lengthAdjust="spacing" textLength="745.7871" x="162" y="803.1826">+updateTrenchCoat(id: int, newID: int, size: int, color: string, price: float, quantity: int, photo: string): void</text><text fill="#000000" font-family="sans-serif" font-size="14" lengthAdjust="spacing" textLength="308.875" x="162" y="819.4795">+getAllTrenchCoats(): vector&lt;TrenchCoat&gt;</text><text fill="#000000" font-family="sans-serif" font-size="14" lengthAdjust="spacing" textLength="138.209" x="162" y="835.7764">+writeToFile(): void</text><text fill="#000000" font-family="sans-serif" font-size="14" lengthAdjust="spacing" textLength="153.7402" x="162" y="852.0732">+readFromFile(): void</text></g><!--class MySQLRepository--><g id="elem_MySQLRepository"><rect codeLine="47" fill="#F1F1F1" height="145.7813" id="MySQLRepository" rx="2.5" ry="2.5" style="stroke:#181818;stroke-width:0.5;" width="757.7871" x="7" y="1033.5"/><ellipse cx="320.0723" cy="1049.5" fill="#ADD1B2" rx="11" ry="11" style="stroke:#181818;stroke-width:1;"/><path d="M323.041,1055.1406 Q322.4629,1055.4375 321.8223,1055.5781 Q321.1816,1055.7344 320.4785,1055.7344 Q317.9785,1055.7344 316.6504,1054.0938 Q315.3379,1052.4375 315.3379,1049.3125 Q315.3379,1046.1875 316.6504,1044.5313 Q317.9785,1042.875 320.4785,1042.875 Q321.1816,1042.875 321.8223,1043.0313 Q322.4785,1043.1875 323.041,1043.4844 L323.041,1046.2031 Q322.416,1045.625 321.8223,1045.3594 Q321.2285,1045.0781 320.6035,1045.0781 Q319.2598,1045.0781 318.5723,1046.1563 Q317.8848,1047.2188 317.8848,1049.3125 Q317.8848,1051.4063 318.5723,1052.4844 Q319.2598,1053.5469 320.6035,1053.5469 Q321.2285,1053.5469 321.8223,1053.2813 Q322.416,1053 323.041,1052.4219 L323.041,1055.1406 Z " fill="#000000"/><text fill="#000000" font-family="sans-serif" font-size="14" lengthAdjust="spacing" textLength="123.1426" x="340.5723" y="1054.3467">MySQLRepository</text><line style="stroke:#181818;stroke-width:0.5;" x1="8" x2="763.7871" y1="1065.5" y2="1065.5"/><line style="stroke:#181818;stroke-width:0.5;" x1="8" x2="763.7871" y1="1073.5" y2="1073.5"/><text fill="#000000" font-family="sans-serif" font-size="14" lengthAdjust="spacing" textLength="117.2568" x="13" y="1090.4951">+connect(): void</text><text fill="#000000" font-family="sans-serif" font-size="14" lengthAdjust="spacing" textLength="137.3271" x="13" y="1106.792">+disconnect(): void</text><text fill="#000000" font-family="sans-serif" font-size="14" lengthAdjust="spacing" textLength="642.6465" x="13" y="1123.0889">+addTrenchCoat(id: int, size: int, color: string, price: float, quantity: int, photo: string): void</text><text fill="#000000" font-family="sans-serif" font-size="14" lengthAdjust="spacing" textLength="235.8877" x="13" y="1139.3857">+removeTrenchCoat(id: int): void</text><text fill="#000000" font-family="sans-serif" font-size="14" lengthAdjust="spacing" textLength="745.7871" x="13" y="1155.6826">+updateTrenchCoat(id: int, newID: int, size: int, color: string, price: float, quantity: int, photo: string): void</text><text fill="#000000" font-family="sans-serif" font-size="14" lengthAdjust="spacing" textLength="308.875" x="13" y="1171.9795">+getAllTrenchCoats(): vector&lt;TrenchCoat&gt;</text></g><!--class TrenchCoat--><g id="elem_TrenchCoat"><rect codeLine="56" fill="#F1F1F1" height="341.3438" id="TrenchCoat" rx="2.5" ry="2.5" style="stroke:#181818;stroke-width:0.5;" width="368.043" x="800" y="936"/><ellipse cx="939.3848" cy="952" fill="#ADD1B2" rx="11" ry="11" style="stroke:#181818;stroke-width:1;"/><path d="M942.3535,957.6406 Q941.7754,957.9375 941.1348,958.0781 Q940.4941,958.2344 939.791,958.2344 Q937.291,958.2344 935.9629,956.5938 Q934.6504,954.9375 934.6504,951.8125 Q934.6504,948.6875 935.9629,947.0313 Q937.291,945.375 939.791,945.375 Q940.4941,945.375 941.1348,945.5313 Q941.791,945.6875 942.3535,945.9844 L942.3535,948.7031 Q941.7285,948.125 941.1348,947.8594 Q940.541,947.5781 939.916,947.5781 Q938.5723,947.5781 937.8848,948.6563 Q937.1973,949.7188 937.1973,951.8125 Q937.1973,953.9063 937.8848,954.9844 Q938.5723,956.0469 939.916,956.0469 Q940.541,956.0469 941.1348,955.7813 Q941.7285,955.5 942.3535,954.9219 L942.3535,957.6406 Z " fill="#000000"/><text fill="#000000" font-family="sans-serif" font-size="14" lengthAdjust="spacing" textLength="80.7734" x="959.8848" y="956.8467">TrenchCoat</text><line style="stroke:#181818;stroke-width:0.5;" x1="801" x2="1167.043" y1="968" y2="968"/><text fill="#000000" font-family="sans-serif" font-size="14" lengthAdjust="spacing" textLength="45.2471" x="806" y="984.9951">-id: int</text><text fill="#000000" font-family="sans-serif" font-size="14" lengthAdjust="spacing" textLength="59.6162" x="806" y="1001.292">-size: int</text><text fill="#000000" font-family="sans-serif" font-size="14" lengthAdjust="spacing" textLength="88.8809" x="806" y="1017.5889">-color: string</text><text fill="#000000" font-family="sans-serif" font-size="14" lengthAdjust="spacing" textLength="80.5137" x="806" y="1033.8857">-price: float</text><text fill="#000000" font-family="sans-serif" font-size="14" lengthAdjust="spacing" textLength="90.8359" x="806" y="1050.1826">-quantity: int</text><text fill="#000000" font-family="sans-serif" font-size="14" lengthAdjust="spacing" textLength="172.7236" x="806" y="1066.4795">-photographyLink: string</text><line style="stroke:#181818;stroke-width:0.5;" x1="801" x2="1167.043" y1="1073.7813" y2="1073.7813"/><text fill="#000000" font-family="sans-serif" font-size="14" lengthAdjust="spacing" textLength="136.3359" x="806" y="1090.7764">+getTrenchID(): int</text><text fill="#000000" font-family="sans-serif" font-size="14" lengthAdjust="spacing" textLength="150.165" x="806" y="1107.0732">+getTrenchSize(): int</text><text fill="#000000" font-family="sans-serif" font-size="14" lengthAdjust="spacing" textLength="188.7881" x="806" y="1123.3701">+getTrenchColour(): string</text><text fill="#000000" font-family="sans-serif" font-size="14" lengthAdjust="spacing" textLength="169.0254" x="806" y="1139.667">+getTrenchPrice(): float</text><text fill="#000000" font-family="sans-serif" font-size="14" lengthAdjust="spacing" textLength="181.9248" x="806" y="1155.9639">+getTrenchQuantity(): int</text><text fill="#000000" font-family="sans-serif" font-size="14" lengthAdjust="spacing" textLength="261.2354" x="806" y="1172.2607">+getTrenchPhotographyLink(): string</text><text fill="#000000" font-family="sans-serif" font-size="14" lengthAdjust="spacing" textLength="217.3828" x="806" y="1188.5576">+setTrenchID(newID: int): void</text><text fill="#000000" font-family="sans-serif" font-size="14" lengthAdjust="spacing" textLength="245.041" x="806" y="1204.8545">+setTrenchSize(newSize: int): void</text><text fill="#000000" font-family="sans-serif" font-size="14" lengthAdjust="spacing" textLength="291.4775" x="806" y="1221.1514">+setTrenchColour(newColor: string): void</text><text fill="#000000" font-family="sans-serif" font-size="14" lengthAdjust="spacing" textLength="269.5615" x="806" y="1237.4482">+setTrenchPrice(newPrice: float): void</text><text fill="#000000" font-family="sans-serif" font-size="14" lengthAdjust="spacing" textLength="308.5605" x="806" y="1253.7451">+setTrenchQuantity(newQuantity: int): void</text><text fill="#000000" font-family="sans-serif" font-size="14" lengthAdjust="spacing" textLength="356.043" x="806" y="1270.042">+setTrenchPhotographyLink(newLink: string): void</text></g><!--link UI to Controller--><g id="link_UI_Controller"><path codeLine="78" d="M760,316.27 C760,342.07 760,362.31 760,386.52 " fill="transparent" id="UI-to-Controller" style="stroke:#181818;stroke-width:1;"/><polygon fill="#181818" points="760,392.52,764,383.52,760,387.52,756,383.52,760,392.52" style="stroke:#181818;stroke-width:1;"/><text fill="#000000" font-family="sans-serif" font-size="13" lengthAdjust="spacing" textLength="29.7832" x="761" y="359.0669">uses</text></g><!--link Controller to Repository--><g id="link_Controller_Repository"><path codeLine="79" d="M672.69,604.08 C651.56,629.38 633.0354,651.5742 612.6054,676.0442 " fill="transparent" id="Controller-to-Repository" style="stroke:#181818;stroke-width:1;"/><polygon fill="#181818" points="608.76,680.65,617.5986,676.3049,611.9645,676.8119,611.4575,671.1778,608.76,680.65" style="stroke:#181818;stroke-width:1;"/><text fill="#000000" font-family="sans-serif" font-size="13" lengthAdjust="spacing" textLength="29.7832" x="649" y="647.0669">uses</text></g><!--reverse link Repository to MySQLRepository--><g id="link_Repository_MySQLRepository"><path codeLine="80" d="M488.3352,875.7622 C464.1452,930.0622 440.87,982.31 418.15,1033.33 " fill="transparent" id="Repository-backto-MySQLRepository" style="stroke:#181818;stroke-width:1;"/><polygon fill="transparent" points="495.66,859.32,482.8544,873.3206,493.8159,878.2038,495.66,859.32" style="stroke:#181818;stroke-width:1;"/><text fill="#000000" font-family="sans-serif" font-size="13" lengthAdjust="spacing" textLength="48.915" x="480" y="902.0669">inherits</text></g><!--link Controller to TrenchCoat--><g id="link_Controller_TrenchCoat"><path codeLine="81" d="M879.2,604.29 C899.46,627.59 918.09,653.58 931,681 C968.05,759.71 981.9514,849.2596 986.5014,929.7596 " fill="transparent" id="Controller-to-TrenchCoat" style="stroke:#181818;stroke-width:1;"/><polygon fill="#181818" points="986.84,935.75,990.3257,926.5386,986.5578,930.758,982.3385,926.9901,986.84,935.75" style="stroke:#181818;stroke-width:1;"/><text fill="#000000" font-family="sans-serif" font-size="13" lengthAdjust="spacing" textLength="59.8584" x="981" y="774.5669">manages</text></g><!--link Repository to TrenchCoat--><g id="link_Repository_TrenchCoat"><path codeLine="82" d="M672.74,859.16 C708.84,883.31 747.35,910.01 782,936 C787.95,940.46 789.2133,941.37 795.2533,946.04 " fill="transparent" id="Repository-to-TrenchCoat" style="stroke:#181818;stroke-width:1;"/><polygon fill="#181818" points="800,949.71,795.3267,941.0405,796.0444,946.6516,790.4333,947.3694,800,949.71" style="stroke:#181818;stroke-width:1;"/><text fill="#000000" font-family="sans-serif" font-size="13" lengthAdjust="spacing" textLength="59.8584" x="738" y="902.0669">manages</text></g><!--SRC=[xLPDRnen4Btlh_0jL06fPnH58f18I4a3XPuhisjO2w_jsbxIxST_xtXZREyNLGvjB-Mqp7iUl_4Rpwu-KYwnmWLA6TPwPeoYkzAGPIhuXduZw7sINA6vnOXEQWxwj4JV4mI_2GAMKO8negPexfyTkCFwICpd2vnhf4e-avBH51ig-EZT59q4pHo8iu9oget2HgWdaP4MNchI5vQASZDZRAi8J_Evm4QFKg0zx-UH5E2qTyl2YbPAHGfn8eDmAJDiXk43COFOYwAmKYommN1UfBClpXwKA0RWj4ePsUPAb8SyhlP2OLknoOMKb1_kQdj6naDJ56Wz9zfQrsIGGfhg5NdUzqdvcRZk2HxuBb942at1usgAFlhdNbjeLZitHXgQqpscWWam5Fe4r8sjs1IWFGF-67qfCJVKL8uhSs74cGlQTaAm8O_TNh-nsYlYv6Mv-6FgWattN-5Aw4XTn6fsMg24O22sReWjawHmy3SXUklOUyeCKNULdGWZNzkb5HgVo4g9WoAwtOvGUTtJ3vIHRdi4_trxXDBru8uJgv5ym0Kv7zzVQPzB8-BVjqzp1Bt1RpUK6Wur1rA_UK_LPltOSV3QlYOuxDNAbL7T3_ptx4sU-UCFGNztd5Jtpslqh-z8g8l5Qbse8VbCixeF2ikyUgJysBfrVWuj5rRqULa4rAEa7vg3gb9Pi3_doYgqSD0OeMidTY3vggcxiukEb0TxcyReHX70siGZiOVdAWBcF3xn0VPhVK1UHLOCS7srG5_7DWtbRfKFosBxeXjz1QEOrLzbEgTI9_3LDvdSng_lgVq0qqaKiOJe-Zj25BdvCPbqfeJLcnCOEPrSKKDFKO4vFZJJ3N5-0G00]--></g></svg>